<svg width="20" height="20" viewBox="0 0 20 20" fill="none" xmlns="http://www.w3.org/2000/svg">
<g clip-path="url(#clip0)">
<path d="M11.2506 3.48333C11.0206 3.48333 10.834 3.29667 10.834 3.06667V1.66667C10.834 1.2075 10.4598 0.833333 10.0006 0.833333C9.54148 0.833333 9.16732 1.2075 9.16732 1.66667V3.06667C9.16732 3.29667 8.98065 3.48333 8.75065 3.48333C8.52065 3.48333 8.33398 3.2975 8.33398 3.06667V1.66667C8.33398 0.7475 9.08148 0 10.0006 0C10.9198 0 11.6673 0.7475 11.6673 1.66667V3.06667C11.6673 3.2975 11.4806 3.48333 11.2506 3.48333Z" fill="black"/>
<path d="M10.0007 20C8.39232 20 7.08398 18.6916 7.08398 17.0833C7.08398 16.8533 7.27065 16.6666 7.50065 16.6666C7.73065 16.6666 7.91732 16.8533 7.91732 17.0833C7.91732 18.2316 8.85232 19.1666 10.0007 19.1666C11.149 19.1666 12.084 18.2316 12.084 17.0833C12.084 16.8533 12.2707 16.6666 12.5007 16.6666C12.7307 16.6666 12.9173 16.8533 12.9173 17.0833C12.9173 18.6916 11.609 20 10.0007 20Z" fill="black"/>
<path d="M17.0827 17.5H2.91602C2.22685 17.5 1.66602 16.9392 1.66602 16.25C1.66602 15.8842 1.82518 15.5383 2.10352 15.3C3.41685 14.19 4.16602 12.575 4.16602 10.865V8.33333C4.16602 5.11667 6.78268 2.5 9.99935 2.5C13.216 2.5 15.8327 5.11667 15.8327 8.33333V10.865C15.8327 12.5758 16.5818 14.19 17.8885 15.2942C18.1735 15.5383 18.3327 15.8842 18.3327 16.25C18.3327 16.9392 17.7727 17.5 17.0827 17.5ZM9.99935 3.33333C7.24185 3.33333 4.99935 5.57583 4.99935 8.33333V10.865C4.99935 12.8217 4.14268 14.6675 2.64852 15.9308C2.55268 16.0125 2.49935 16.1283 2.49935 16.25C2.49935 16.48 2.68602 16.6667 2.91602 16.6667H17.0827C17.3127 16.6667 17.4993 16.48 17.4993 16.25C17.4993 16.1283 17.446 16.0125 17.3535 15.9333C15.8568 14.6675 14.9993 12.8208 14.9993 10.865V8.33333C14.9993 5.57583 12.7568 3.33333 9.99935 3.33333Z" fill="black"/>
</g>
<defs>
<clipPath id="clip0">
<rect width="20" height="20" fill="white"/>
</clipPath>
</defs>
</svg>
