<svg width="18" height="16" viewBox="0 0 18 16" fill="none" xmlns="http://www.w3.org/2000/svg">
<path d="M16.0827 15.5H1.91602C1.22685 15.5 0.666016 14.9392 0.666016 14.25C0.666016 13.8842 0.825182 13.5383 1.10352 13.3C2.41685 12.19 3.16602 10.575 3.16602 8.865V6.33333C3.16602 3.11667 5.78268 0.5 8.99935 0.5C12.216 0.5 14.8327 3.11667 14.8327 6.33333V8.865C14.8327 10.5758 15.5818 12.19 16.8885 13.2942C17.1735 13.5383 17.3327 13.8842 17.3327 14.25C17.3327 14.9392 16.7727 15.5 16.0827 15.5ZM8.99935 1.33333C6.24185 1.33333 3.99935 3.57583 3.99935 6.33333V8.865C3.99935 10.8217 3.14268 12.6675 1.64852 13.9308C1.55268 14.0125 1.49935 14.1283 1.49935 14.25C1.49935 14.48 1.68602 14.6667 1.91602 14.6667H16.0827C16.3127 14.6667 16.4993 14.48 16.4993 14.25C16.4993 14.1283 16.446 14.0125 16.3535 13.9333C14.8568 12.6675 13.9993 10.8208 13.9993 8.865V6.33333C13.9993 3.57583 11.7568 1.33333 8.99935 1.33333Z" fill="black"/>
</svg>
