<svg width="60" height="60" viewBox="0 0 60 60" fill="none" xmlns="http://www.w3.org/2000/svg">
<g clip-path="url(#clip0)">
<path d="M50.2808 0H9.71924C4.3515 0 0 4.3515 0 9.71924V50.2808C0 55.6485 4.3515 60 9.71924 60H50.2808C55.6485 60 60 55.6485 60 50.2808V9.71924C60 4.3515 55.6485 0 50.2808 0Z" fill="#D2492F"/>
<path d="M33.5751 0H9.71924C4.3515 0 0 4.3515 0 9.71924V50.2808C0 55.6485 4.3515 60 9.71924 60H22.2345C12.3839 48.187 16.0927 26.3567 23.5327 17.8404C30.7173 9.61716 32.9105 3.03497 33.5751 0V0Z" fill="#D2492F"/>
<path d="M27.36 44.7981C26.1277 44.7981 24.9389 44.3266 24.0403 43.4756L11.3964 31.5065C9.45965 29.6731 9.37588 26.6166 11.2092 24.6798C13.0426 22.743 16.0986 22.6588 18.0359 24.4926L27.0817 33.0555L41.6926 16.8026C43.4756 14.8192 46.5289 14.6571 48.5124 16.4396C50.4954 18.2226 50.6579 21.2759 48.8749 23.2594L30.9512 43.1973C30.0805 44.1655 28.856 44.7413 27.5546 44.794C27.4896 44.7967 27.4246 44.7981 27.36 44.7981Z" fill="white"/>
<path d="M18.0359 24.4926C16.0986 22.6588 13.0426 22.743 11.2092 24.6798C9.37588 26.6166 9.45965 29.6731 11.3964 31.5065L16.5229 36.3597C16.9418 32.4989 17.8546 28.775 19.1208 25.5198L18.0359 24.4926Z" fill="white"/>
</g>
<defs>
<clipPath id="clip0">
<rect width="60" height="60" fill="white"/>
</clipPath>
</defs>
</svg>
