<svg width="90" height="90" viewBox="0 0 90 90" fill="none" xmlns="http://www.w3.org/2000/svg">
<path d="M33.39 86.7534C33.5213 86.8906 33.679 86.9998 33.8537 87.0744C34.0283 87.149 34.2163 87.1875 34.4062 87.1875H40.7812C41.0423 87.1875 41.2983 87.1148 41.5205 86.9775C41.7426 86.8402 41.9221 86.6438 42.039 86.4102L44.9999 80.4882L47.9609 86.4102C48.0777 86.6438 48.2573 86.8402 48.4794 86.9775C48.7016 87.1148 48.9575 87.1875 49.2187 87.1875H55.5937C55.7836 87.1875 55.9716 87.1491 56.1462 87.0744C56.3209 86.9998 56.4787 86.8906 56.6099 86.7533C56.7412 86.6161 56.8434 86.4536 56.9101 86.2758C56.9769 86.098 57.007 85.9085 56.9985 85.7188L56.2561 69.0146L57.4028 63.2813H57.6562C57.9173 63.2812 58.1733 63.2085 58.3955 63.0712C58.6176 62.934 58.7971 62.7375 58.9139 62.504L61.7264 56.879C61.8838 56.5642 61.9175 56.2019 61.8209 55.8636L59.0084 46.0198C58.9509 45.819 58.8495 45.6335 58.7114 45.4767C58.5734 45.32 58.4021 45.1959 58.2101 45.1136L50.1402 41.6551C50.4602 40.9376 50.6254 40.1607 50.6249 39.375V32.3438C50.6249 32.1122 50.5678 31.8843 50.4585 31.6802C50.3493 31.4761 50.1913 31.3021 49.9987 31.1737L46.5959 28.9052C45.8964 28.4388 45.0835 28.1711 44.2438 28.1304C43.4041 28.0898 42.5692 28.2778 41.828 28.6745C41.0868 29.0711 40.4671 29.6615 40.0351 30.3827C39.6031 31.1039 39.3749 31.9288 39.3749 32.7695V39.375C39.3745 40.1607 39.5397 40.9376 39.8597 41.6551L31.7897 45.1136C31.5905 45.199 31.4136 45.3294 31.2731 45.4944C31.1325 45.6595 31.032 45.8548 30.9795 46.0652L28.167 57.3152C28.1195 57.5052 28.1122 57.7032 28.1456 57.8962C28.1791 58.0893 28.2525 58.2732 28.3611 58.4363L31.1736 62.655C31.3021 62.8477 31.476 63.0056 31.6801 63.1149C31.8843 63.2241 32.1122 63.2813 32.3437 63.2813H32.5971L33.7438 69.0146L33.0013 85.7188C32.9929 85.9085 33.023 86.098 33.0898 86.2758C33.1566 86.4536 33.2587 86.6161 33.39 86.7534ZM50.0878 84.375L46.2577 76.7148C46.1409 76.4812 45.9614 76.2848 45.7392 76.1475C45.5171 76.0102 45.2611 75.9375 44.9999 75.9375C44.7388 75.9375 44.4828 76.0102 44.2607 76.1475C44.0385 76.2848 43.859 76.4812 43.7422 76.7148L39.9121 84.375H35.8763L36.5013 70.3125H53.4985L54.1236 84.375H50.0878ZM42.1874 39.375V36.5625H47.8124V39.375C47.8124 40.1209 47.5161 40.8363 46.9887 41.3637C46.4612 41.8912 45.7459 42.1875 44.9999 42.1875C44.254 42.1875 43.5386 41.8912 43.0112 41.3637C42.4838 40.8363 42.1874 40.1209 42.1874 39.375ZM44.0194 30.9375C44.3811 30.9371 44.7349 31.0441 45.0356 31.2451L47.8124 33.0963V33.75H42.1874V32.7695C42.188 32.2838 42.3811 31.8181 42.7246 31.4747C43.068 31.1312 43.5337 30.938 44.0194 30.9375ZM31.0463 57.3938L33.5388 47.424L41.7002 43.9263C42.6589 44.6241 43.8142 45 45 45C46.1857 45 47.341 44.6241 48.2997 43.9263L56.4877 47.4354L58.9663 56.1104L56.7871 60.4688H50.9569L47.7962 58.8884L53.1763 55.3016L55.8051 56.1779L56.6947 53.5096L54.8437 52.8926V49.2188C54.8437 48.8458 54.6955 48.4881 54.4318 48.2244C54.1681 47.9607 53.8104 47.8125 53.4374 47.8125H50.6249C50.4461 47.8125 50.2688 47.8466 50.1027 47.9131L45.4672 49.7672L39.8197 47.8846C39.6763 47.8369 39.5261 47.8125 39.3749 47.8125H36.5624C36.1895 47.8125 35.8318 47.9607 35.5681 48.2244C35.3044 48.4881 35.1562 48.8458 35.1562 49.2188V54.8438C35.1562 55.0736 35.2125 55.2999 35.3201 55.5029C35.4278 55.7059 35.5837 55.8794 35.774 56.0083C35.9643 56.1371 36.1832 56.2174 36.4117 56.242C36.6402 56.2666 36.8713 56.2348 37.0846 56.1494L45.8443 52.6456L47.4058 55.7686L40.3555 60.4688H33.0963L31.0463 57.3938ZM52.0312 52.6849L49.7641 54.1963L48.4647 51.5975L50.8958 50.625H52.0312V52.6849ZM41.4246 51.3843L37.9687 52.7666V50.625H39.1468L41.4246 51.3843ZM40.7812 63.2813C41.0588 63.2812 41.3302 63.199 41.5612 63.045L45.101 60.6852L49.996 63.1328C50.1912 63.2304 50.4066 63.2813 50.6249 63.2813H54.5345L53.6908 67.5H36.3091L35.4653 63.2813H40.7812Z" fill="#C09728"/>
<path d="M40.7812 26.7188V18.2812C40.7812 17.9083 40.633 17.5506 40.3693 17.2869C40.1056 17.0232 39.7479 16.875 39.3749 16.875H35.5012L44.9999 6.32092L54.4987 16.875H50.6249C50.252 16.875 49.8943 17.0232 49.6306 17.2869C49.3669 17.5506 49.2187 17.9083 49.2187 18.2812V26.7188H52.0312V19.6875H57.6562C57.928 19.6875 58.194 19.6087 58.422 19.4607C58.65 19.3126 58.8302 19.1017 58.9407 18.8534C59.0513 18.605 59.0876 18.33 59.0451 18.0615C59.0026 17.793 58.8833 17.5426 58.7014 17.3405L46.0452 3.27805C45.9133 3.13152 45.7521 3.01435 45.5721 2.93415C45.392 2.85395 45.1971 2.8125 44.9999 2.8125C44.8028 2.8125 44.6079 2.85395 44.4278 2.93415C44.2478 3.01435 44.0866 3.13152 43.9547 3.27805L31.2985 17.3405C31.1166 17.5426 30.9972 17.793 30.9548 18.0615C30.9123 18.33 30.9486 18.605 31.0591 18.8534C31.1697 19.1017 31.3499 19.3126 31.5779 19.4607C31.8059 19.6087 32.0719 19.6875 32.3437 19.6875H37.9687V26.7188H40.7812Z" fill="#C09728"/>
<path d="M17.3405 47.4519C17.5426 47.6338 17.793 47.7531 18.0615 47.7956C18.33 47.8381 18.605 47.8018 18.8534 47.6912C19.1017 47.5807 19.3126 47.4005 19.4607 47.1725C19.6087 46.9445 19.6875 46.6785 19.6875 46.4067V40.7817H23.9062C24.2791 40.7821 24.6365 40.9304 24.9001 41.194C25.1638 41.4577 25.3121 41.8151 25.3125 42.1879V46.4067H28.125V42.1879C28.1237 41.0695 27.6788 39.9971 26.8879 39.2062C26.0971 38.4154 25.0247 37.9705 23.9062 37.9692H18.2812C17.9083 37.9692 17.5506 38.1174 17.2869 38.3811C17.0232 38.6448 16.875 39.0025 16.875 39.3754V43.2492L6.32092 33.7504L16.875 24.2517V28.1254C16.875 28.4984 17.0232 28.8561 17.2869 29.1198C17.5506 29.3835 17.9083 29.5317 18.2812 29.5317H25.3125C27.5495 29.5342 29.6942 30.4239 31.276 32.0057C32.8577 33.5875 33.7475 35.7322 33.75 37.9692V40.7817H36.5625V37.9692C36.5591 34.9865 35.3728 32.127 33.2637 30.0179C31.1547 27.9089 28.2952 26.7225 25.3125 26.7192H19.6875V21.0942C19.6875 20.8224 19.6087 20.5564 19.4607 20.3284C19.3126 20.1004 19.1017 19.9202 18.8534 19.8096C18.605 19.699 18.33 19.6628 18.0615 19.7053C17.793 19.7477 17.5426 19.8671 17.3405 20.0489L3.27805 32.7052C3.13152 32.8371 3.01435 32.9983 2.93415 33.1783C2.85395 33.3584 2.8125 33.5533 2.8125 33.7504C2.8125 33.9476 2.85395 34.1425 2.93415 34.3226C3.01435 34.5026 3.13152 34.6638 3.27805 34.7957L17.3405 47.4519Z" fill="#C09728"/>
<path d="M86.722 32.7057L72.6595 20.0494C72.4574 19.8676 72.207 19.7482 71.9385 19.7057C71.67 19.6633 71.395 19.6995 71.1466 19.8101C70.8983 19.9207 70.6874 20.1009 70.5393 20.3289C70.3913 20.5569 70.3125 20.8229 70.3125 21.0947V26.7197H64.6875C61.7048 26.723 58.8453 27.9094 56.7363 30.0184C54.6272 32.1275 53.4409 34.987 53.4375 37.9697V40.7822H56.25V37.9697C56.2525 35.7327 57.1423 33.588 58.724 32.0062C60.3058 30.4244 62.4505 29.5347 64.6875 29.5322H71.7188C72.0917 29.5322 72.4494 29.384 72.7131 29.1203C72.9768 28.8566 73.125 28.4989 73.125 28.1259V24.2522L83.6791 33.7509L73.125 43.2496V39.3759C73.125 39.003 72.9768 38.6453 72.7131 38.3816C72.4494 38.1179 72.0917 37.9697 71.7188 37.9697H66.0938C64.9753 37.971 63.9029 38.4158 63.1121 39.2067C62.3212 39.9976 61.8763 41.0699 61.875 42.1884V46.4072H64.6875V42.1884C64.6879 41.8156 64.8362 41.4582 65.0999 41.1945C65.3635 40.9309 65.7209 40.7826 66.0938 40.7822H70.3125V46.4072C70.3125 46.679 70.3913 46.945 70.5393 47.173C70.6873 47.401 70.8983 47.5812 71.1466 47.6918C71.3949 47.8024 71.67 47.8386 71.9385 47.7961C72.207 47.7537 72.4574 47.6343 72.6595 47.4524L86.722 34.7962C86.8685 34.6643 86.9856 34.5031 87.0658 34.323C87.1461 34.143 87.1875 33.9481 87.1875 33.7509C87.1875 33.5538 87.1461 33.3589 87.0658 33.1788C86.9856 32.9987 86.8685 32.8375 86.722 32.7057Z" fill="#C09728"/>
</svg>
