<svg width="90" height="90" viewBox="0 0 90 90" fill="none" xmlns="http://www.w3.org/2000/svg">
<path d="M37.192 45.8291C36.8585 45.6623 36.4723 45.6349 36.1185 45.7528C35.7647 45.8707 35.4722 46.1244 35.3054 46.4579L35.1185 46.8316C34.7598 47.549 34.2085 48.1524 33.5262 48.5741C32.8439 48.9957 32.0577 49.2191 31.2556 49.2191C30.4536 49.2191 29.6674 48.9957 28.9851 48.5741C28.3028 48.1524 27.7514 47.549 27.3928 46.8316L27.2061 46.4581C27.0393 46.1245 26.7468 45.8708 26.3929 45.7529C26.0391 45.635 25.6529 45.6624 25.3193 45.8292C24.9857 45.996 24.7321 46.2885 24.6141 46.6424C24.4962 46.9962 24.5237 47.3824 24.6905 47.716L24.8773 48.0893C25.4696 49.2739 26.38 50.2701 27.5066 50.9664C28.6332 51.6626 29.9314 52.0314 31.2557 52.0314C32.5801 52.0314 33.8783 51.6626 35.0049 50.9664C36.1314 50.2701 37.0419 49.2739 37.6341 48.0893L37.8208 47.7158C37.9876 47.3822 38.0151 46.9961 37.8971 46.6423C37.7792 46.2884 37.5256 45.996 37.192 45.8291Z" fill="#C09728"/>
<path d="M79.6906 34.0458C79.1818 32.732 78.2916 31.6005 77.1344 30.7968C77.1167 30.7456 77.0961 30.6955 77.0727 30.6467C76.0463 28.5309 74.5873 26.6542 72.79 25.1378C70.9926 23.6214 68.897 22.4992 66.6387 21.8437C67.9158 19.7586 69.8416 18.1499 72.1207 17.2643C72.5428 18.161 73.267 18.8805 74.1664 19.2966C75.0658 19.7127 76.083 19.799 77.0396 19.5401C77.9963 19.2813 78.8313 18.694 79.3982 17.8811C79.9651 17.0683 80.2277 16.0818 80.1401 15.0947C80.0524 14.1075 79.6201 13.1828 78.9188 12.4825C78.2175 11.7823 77.2921 11.3512 76.3049 11.265C75.3176 11.1788 74.3315 11.4429 73.5195 12.011C72.7075 12.5791 72.1213 13.415 71.8639 14.372C68.3481 15.5088 65.4249 17.9905 63.7326 21.2753C60.348 20.9171 56.9344 21.5962 53.9445 23.2226C50.9546 24.8489 48.5298 27.3457 46.9914 30.3818L46.4641 27.622L49.773 24.5161C49.9676 24.3335 50.1063 24.0992 50.1727 23.8407C50.2391 23.5821 50.2306 23.31 50.1481 23.0562C50.0657 22.8023 49.9126 22.5771 49.7069 22.407C49.5012 22.2369 49.2514 22.1288 48.9865 22.0955L47.4609 21.9032V15.143C48.5346 14.7316 49.4304 13.9574 49.9929 12.9545C50.5554 11.9517 50.749 10.7836 50.5402 9.65293C50.3314 8.52226 49.7333 7.50037 48.8497 6.7646C47.9662 6.02883 46.8529 5.62561 45.7031 5.62493H45.6504C45.1571 4.77003 44.4474 4.06008 43.5926 3.56647C42.7379 3.07286 41.7683 2.81299 40.7812 2.81299C39.7942 2.81299 38.8246 3.07286 37.9699 3.56647C37.1151 4.06008 36.4054 4.77003 35.9121 5.62493H35.8594C34.6156 5.62579 33.4183 6.0975 32.5082 6.9452C31.598 7.79291 31.0426 8.95375 30.9535 10.1943C30.8645 11.4349 31.2484 12.6632 32.028 13.6322C32.8077 14.6012 33.9254 15.2392 35.1562 15.4177V21.8961L33.5742 22.0956C33.3094 22.129 33.0595 22.237 32.8537 22.4071C32.648 22.5772 32.495 22.8024 32.4125 23.0563C32.33 23.3101 32.3214 23.5823 32.3879 23.8408C32.4543 24.0993 32.5929 24.3336 32.7876 24.5163L36.0967 27.6222L35.245 32.08C35.1949 32.3422 35.2204 32.6132 35.3187 32.8614C35.4169 33.1096 35.5837 33.3248 35.7997 33.4817C36.0156 33.6386 36.2718 33.7308 36.5382 33.7475C36.8046 33.7642 37.0702 33.7048 37.3041 33.5761L41.2806 31.3887L45.257 33.5761C45.4009 33.6541 45.5573 33.7062 45.7193 33.7301C45.4772 34.6586 45.3156 35.6062 45.2362 36.5624H21.71C21.3723 36.5624 21.0458 36.684 20.7903 36.9049C20.5348 37.1258 20.3673 37.4313 20.3185 37.7655L19.7515 41.6473L12.9182 51.214C12.7169 51.4957 12.6267 51.8418 12.6648 52.1859C12.7029 52.5301 12.8666 52.8481 13.1245 53.079L18.2812 57.6952V77.3437C18.2812 77.6897 18.4088 78.0236 18.6396 78.2815C18.8704 78.5394 19.1882 78.7031 19.5321 78.7413L30.9375 80.0085V85.7812C30.9375 86.1541 31.0856 86.5118 31.3494 86.7756C31.6131 87.0393 31.9708 87.1874 32.3437 87.1874H63.2812C63.6542 87.1874 64.0119 87.0393 64.2756 86.7756C64.5393 86.5118 64.6875 86.1541 64.6875 85.7812V73.3007L66.395 66.588C68.1906 59.5417 68.8518 52.2543 68.3538 44.9999H78.8672C80.2564 44.9997 81.5942 44.4745 82.6125 43.5296C83.6309 42.5847 84.2546 41.29 84.3588 39.9047C84.4629 38.5194 84.0397 37.1459 83.174 36.0594C82.3084 34.973 81.0641 34.2537 79.6906 34.0458ZM44.6484 15.4687V21.5484L44.4844 21.5279L42.5531 17.4211C42.4395 17.1796 42.2595 16.9754 42.0342 16.8324C41.8089 16.6894 41.5475 16.6134 41.2806 16.6134C41.0138 16.6134 40.7524 16.6894 40.5271 16.8324C40.3017 16.9754 40.1218 17.1796 40.0082 17.4211L38.0767 21.5279L37.9687 21.5414V15.4687H44.6484ZM33.75 10.5468C33.7506 9.98755 33.973 9.45137 34.3685 9.05592C34.7639 8.66046 35.3001 8.43803 35.8594 8.43743H36.8052C37.096 8.43743 37.3796 8.3473 37.617 8.17945C37.8545 8.0116 38.034 7.77428 38.131 7.50016C38.3245 6.95182 38.6833 6.47699 39.1579 6.14112C39.6326 5.80526 40.1998 5.62489 40.7812 5.62489C41.3627 5.62489 41.9299 5.80526 42.4045 6.14112C42.8792 6.47699 43.238 6.95182 43.4315 7.50016C43.5285 7.77428 43.708 8.0116 43.9454 8.17945C44.1829 8.3473 44.4665 8.43743 44.7572 8.43743H45.7031C46.2626 8.43743 46.7991 8.65967 47.1947 9.05525C47.5903 9.45083 47.8125 9.98736 47.8125 10.5468C47.8125 11.1062 47.5903 11.6428 47.1947 12.0384C46.7991 12.4339 46.2626 12.6562 45.7031 12.6562H35.8594C35.3001 12.6556 34.7639 12.4331 34.3685 12.0377C33.973 11.6422 33.7506 11.1061 33.75 10.5468ZM43.9759 26.1008C43.8031 26.263 43.6741 26.4662 43.6009 26.6916C43.5276 26.917 43.5125 27.1572 43.557 27.39L43.9926 29.6704L41.959 28.5516C41.7513 28.4373 41.5182 28.3775 41.2812 28.3775C41.0443 28.3775 40.8112 28.4373 40.6035 28.5516L38.5692 29.6704L39.005 27.39C39.0493 27.1572 39.0342 26.917 38.961 26.6916C38.8878 26.4663 38.7588 26.263 38.5861 26.1008L36.8933 24.5119L39.196 24.2215C39.4312 24.1919 39.655 24.1033 39.8467 23.964C40.0385 23.8247 40.1919 23.6392 40.2927 23.4247L41.2808 21.324L42.2689 23.4247C42.3697 23.6392 42.5231 23.8246 42.7148 23.964C42.9065 24.1033 43.1303 24.1919 43.3654 24.2215L45.6681 24.5119L43.9759 26.1008ZM75.9375 14.0624C76.2156 14.0624 76.4875 14.1449 76.7188 14.2994C76.95 14.4539 77.1302 14.6736 77.2367 14.9305C77.3431 15.1875 77.371 15.4702 77.3167 15.743C77.2625 16.0158 77.1285 16.2664 76.9319 16.463C76.7352 16.6597 76.4846 16.7936 76.2118 16.8479C75.939 16.9022 75.6563 16.8743 75.3993 16.7679C75.1424 16.6614 74.9227 16.4812 74.7682 16.25C74.6137 16.0187 74.5312 15.7468 74.5312 15.4687C74.5317 15.0958 74.6799 14.7384 74.9436 14.4748C75.2072 14.2111 75.5647 14.0628 75.9375 14.0624ZM61.9629 23.9941C64.1239 23.9845 66.2573 24.4802 68.1927 25.4416C70.1282 26.4029 71.8121 27.8034 73.1102 29.5312C72.0722 29.5338 71.0479 29.768 70.1119 30.2167C68.6455 28.6735 66.7711 27.5783 64.7066 27.0585C62.6422 26.5386 60.4727 26.6155 58.4503 27.2802C56.4278 27.9449 54.6357 29.1701 53.2822 30.8133C51.9287 32.4565 51.0695 34.4501 50.8045 36.5624H48.06C48.4125 33.1189 50.0288 29.9283 52.5966 27.607C55.1644 25.2857 58.5014 23.9985 61.9629 23.9941ZM62.7214 36.5624H59.5309C59.7208 36.2325 59.9758 35.9446 60.2804 35.7163C60.5851 35.4881 60.933 35.3242 61.3029 35.2346C61.6729 35.1451 62.0573 35.1317 62.4326 35.1954C62.8079 35.2591 63.1663 35.3985 63.486 35.6051C63.1967 35.895 62.9405 36.2161 62.7219 36.5624H62.7214ZM66.5588 34.0458C66.3971 34.07 66.2377 34.1014 66.0805 34.14C65.3938 33.4007 64.5208 32.8599 63.5531 32.5741C62.5854 32.2884 61.5586 32.2684 60.5804 32.5162C59.6023 32.7639 58.7089 33.2703 57.9938 33.9822C57.2788 34.6942 56.7685 35.5854 56.5165 36.5624H53.6453C53.9014 35.0448 54.5678 33.6261 55.5725 32.4601C56.5772 31.2941 57.8818 30.4252 59.3449 29.9476C60.8081 29.47 62.374 29.4018 63.8732 29.7505C65.3723 30.0992 66.7474 30.8514 67.8496 31.9257C67.2968 32.5499 66.8598 33.2679 66.5594 34.0458H66.5588ZM63.6694 65.895L61.9184 72.7781C61.8896 72.8915 61.875 73.008 61.875 73.1249V84.3749H33.75V78.7499C33.75 78.4039 33.6224 78.07 33.3916 77.8121C33.1608 77.5542 32.8431 77.3905 32.4991 77.3523L21.0937 76.0851V65.0502H23.9446C24.9229 65.0529 25.892 64.8615 26.7958 64.4872C27.6997 64.1128 28.5203 63.5629 29.2103 62.8693C29.474 62.6056 29.6221 62.2479 29.6221 61.8749C29.6221 61.5019 29.4739 61.1442 29.2102 60.8804C28.9464 60.6167 28.5887 60.4686 28.2157 60.4686C27.8427 60.4686 27.485 60.6168 27.2213 60.8805C26.792 61.3122 26.2813 61.6544 25.7189 61.8874C25.1564 62.1203 24.5533 62.2394 23.9446 62.2377H21.0937V57.0666C21.0938 56.8688 21.0521 56.6733 20.9714 56.4927C20.8907 56.3122 20.7728 56.1507 20.6255 56.0188L15.939 51.8234L22.2381 43.0046C22.3682 42.8226 22.4529 42.6121 22.4852 42.3906L22.9257 39.3749H61.8776C61.8776 39.414 61.875 39.4528 61.875 39.492C61.8763 40.6237 62.2256 41.7276 62.8756 42.654C63.5255 43.5804 64.4446 44.2846 65.5082 44.671C66.0548 51.7986 65.4337 58.9677 63.6694 65.895ZM78.8672 42.1874H67.3827C66.6717 42.1817 65.9917 41.8952 65.4909 41.3903C64.9901 40.8855 64.7091 40.2032 64.7091 39.4921C64.7091 38.781 64.9901 38.0987 65.4909 37.5938C65.9917 37.089 66.6717 36.8025 67.3827 36.7967H67.623C67.9453 36.7967 68.2579 36.686 68.5083 36.4831C68.7587 36.2802 68.9319 35.9974 68.9987 35.6821C69.1999 34.737 69.7195 33.8895 70.4705 33.2815C71.2216 32.6735 72.1587 32.3418 73.125 32.3418C74.0913 32.3418 75.0284 32.6735 75.7794 33.2815C76.5305 33.8895 77.0501 34.737 77.2513 35.6821C77.3181 35.9974 77.4912 36.2802 77.7417 36.4831C77.9921 36.686 78.3046 36.7967 78.6269 36.7967H78.8672C79.5783 36.8025 80.2583 37.089 80.7591 37.5938C81.2599 38.0987 81.5409 38.781 81.5409 39.4921C81.5409 40.2032 81.2599 40.8855 80.7591 41.3903C80.2583 41.8952 79.5783 42.1817 78.8672 42.1874Z" fill="#C09728"/>
<path d="M54.8428 18.2817C55.2158 18.2817 55.5735 18.1335 55.8372 17.8698C56.1009 17.606 56.2491 17.2484 56.2491 16.8754V16.6341C56.2444 14.7775 56.875 12.9752 58.0362 11.5266C58.9442 12.2769 60.0911 12.6769 61.2688 12.654C62.4464 12.631 63.5769 12.1866 64.4549 11.4014C65.3329 10.6162 65.9003 9.54221 66.0542 8.37439C66.2081 7.20658 65.9382 6.0223 65.2935 5.03648C64.6488 4.05066 63.6721 3.32862 62.5405 3.00141C61.409 2.6742 60.1976 2.76349 59.1263 3.25308C58.0549 3.74267 57.1946 4.60012 56.7014 5.66982C56.2083 6.73951 56.1149 7.95056 56.4384 9.0832C54.5046 11.1209 53.4296 13.8249 53.4366 16.6341V16.8754C53.4366 17.2484 53.5847 17.606 53.8484 17.8698C54.1122 18.1335 54.4698 18.2817 54.8428 18.2817ZM61.1709 5.6254C61.5881 5.6254 61.996 5.74911 62.3428 5.9809C62.6897 6.21268 62.9601 6.54212 63.1197 6.92755C63.2794 7.31299 63.3212 7.73712 63.2398 8.1463C63.1584 8.55547 62.9575 8.93133 62.6625 9.22633C62.3675 9.52133 61.9916 9.72223 61.5825 9.80362C61.1733 9.88501 60.7491 9.84324 60.3637 9.68359C59.9783 9.52393 59.6488 9.25357 59.4171 8.90668C59.1853 8.5598 59.0616 8.15197 59.0616 7.73478C59.0622 7.17552 59.2846 6.63935 59.68 6.24389C60.0755 5.84844 60.6117 5.62601 61.1709 5.6254Z" fill="#C09728"/>
<path d="M23.9053 21.0937C24.4951 21.0941 25.0783 20.97 25.6169 20.7295C27.2388 22.8542 28.1195 25.452 28.124 28.125C28.124 28.4979 28.2722 28.8556 28.5359 29.1194C28.7996 29.3831 29.1573 29.5312 29.5303 29.5312C29.9032 29.5312 30.2609 29.3831 30.5247 29.1194C30.7884 28.8556 30.9365 28.4979 30.9365 28.125C30.9319 24.745 29.7894 21.465 27.693 18.8137C27.6844 18.803 27.6754 18.7935 27.666 18.7829C28.0813 17.9635 28.2177 17.0309 28.0545 16.1269C27.8912 15.2229 27.4373 14.3969 26.7617 13.7744C26.0861 13.152 25.2257 12.7671 24.3114 12.6784C23.397 12.5897 22.4787 12.8019 21.696 13.2829C20.9133 13.7638 20.3091 14.4871 19.9751 15.3429C19.6411 16.1987 19.5957 17.1401 19.8457 18.0241C20.0958 18.908 20.6276 19.6862 21.3603 20.2403C22.093 20.7943 22.9867 21.094 23.9053 21.0937ZM23.9053 15.4687C24.1834 15.4687 24.4553 15.5512 24.6866 15.7057C24.9178 15.8603 25.0981 16.0799 25.2045 16.3368C25.3109 16.5938 25.3388 16.8765 25.2845 17.1493C25.2303 17.4221 25.0963 17.6727 24.8997 17.8694C24.703 18.066 24.4524 18.2 24.1796 18.2542C23.9069 18.3085 23.6241 18.2806 23.3671 18.1742C23.1102 18.0678 22.8906 17.8875 22.736 17.6563C22.5815 17.425 22.499 17.1531 22.499 16.875C22.4995 16.5022 22.6478 16.1447 22.9114 15.8811C23.175 15.6174 23.5325 15.4692 23.9053 15.4687Z" fill="#C09728"/>
<path d="M19.5264 30.0769C20.4604 30.2504 21.3502 30.6094 22.143 31.1329C22.9359 31.6563 23.6157 32.3334 24.1422 33.1242C24.35 33.4323 24.6714 33.6456 25.036 33.7175C25.4007 33.7894 25.779 33.714 26.0882 33.5079C26.3974 33.3017 26.6124 32.9815 26.6863 32.6172C26.7601 32.253 26.6867 31.8743 26.4822 31.564C25.6883 30.3718 24.6454 29.3658 23.4253 28.6154C22.2053 27.865 20.8371 27.3879 19.4149 27.2171C19.0282 26.1027 18.254 25.1644 17.2333 24.5731C16.2127 23.9817 15.0136 23.7768 13.8545 23.9955C12.6954 24.2142 11.6534 24.8421 10.9185 25.7647C10.1835 26.6873 9.80448 27.8432 9.85041 29.0219C9.89635 30.2005 10.3642 31.3235 11.1687 32.1861C11.9732 33.0487 13.0609 33.5936 14.2335 33.7214C15.4061 33.8493 16.5856 33.5516 17.5571 32.8826C18.5287 32.2137 19.2275 31.2179 19.5264 30.0769ZM12.656 28.8288C12.656 28.4116 12.7797 28.0038 13.0115 27.6569C13.2432 27.31 13.5727 27.0397 13.9581 26.88C14.3436 26.7204 14.7677 26.6786 15.1769 26.76C15.586 26.8414 15.9619 27.0423 16.2569 27.3373C16.5519 27.6323 16.7528 28.0081 16.8342 28.4173C16.9156 28.8265 16.8738 29.2506 16.7141 29.636C16.5545 30.0215 16.2841 30.3509 15.9372 30.5827C15.5904 30.8145 15.1825 30.9382 14.7653 30.9382C14.2061 30.9376 13.6699 30.7152 13.2745 30.3197C12.879 29.9242 12.6566 29.3881 12.656 28.8288Z" fill="#C09728"/>
<path d="M12.6462 17.7079C12.668 17.5244 12.6535 17.3385 12.6035 17.1607C12.5535 16.9829 12.469 16.8167 12.3547 16.6715C12.2404 16.5264 12.0987 16.4052 11.9376 16.3148C11.7764 16.2245 11.5991 16.1668 11.4157 16.145C9.27467 15.8913 7.10419 16.1771 5.1018 16.9763C4.93033 17.0448 4.77405 17.1465 4.64188 17.2755C4.50971 17.4045 4.40424 17.5582 4.33149 17.728C4.25874 17.8977 4.22013 18.0801 4.21788 18.2648C4.21562 18.4495 4.24976 18.6327 4.31834 18.8042C4.38692 18.9757 4.48861 19.132 4.61759 19.2641C4.74657 19.3963 4.90032 19.5018 5.07006 19.5745C5.2398 19.6473 5.42221 19.6859 5.60687 19.6881C5.79153 19.6904 5.97482 19.6563 6.14629 19.5877C7.71174 18.9629 9.40854 18.7393 11.0824 18.9373C11.2659 18.9596 11.4519 18.9455 11.6299 18.8957C11.8079 18.846 11.9743 18.7616 12.1196 18.6473C12.2649 18.5331 12.3862 18.3913 12.4766 18.2301C12.5669 18.0689 12.6245 17.8914 12.6462 17.7079Z" fill="#C09728"/>
<path d="M15.8551 20.8214C16.2665 21.1239 16.6544 21.4572 17.0153 21.8184L17.2855 22.0886C17.5492 22.3523 17.9069 22.5005 18.2799 22.5005C18.6528 22.5005 19.0105 22.3523 19.2742 22.0886C19.538 21.8249 19.6861 21.4672 19.6861 21.0942C19.6861 20.7212 19.538 20.3635 19.2742 20.0998L19.0041 19.8296C18.542 19.3677 18.0457 18.9414 17.5192 18.5545C17.2185 18.3337 16.8425 18.2415 16.4737 18.298C16.105 18.3545 15.7738 18.5552 15.553 18.8559C15.3323 19.1566 15.24 19.5327 15.2965 19.9014C15.353 20.2701 15.5537 20.6013 15.8544 20.8221L15.8551 20.8214Z" fill="#C09728"/>
</svg>
