<svg width="16" height="16" viewBox="0 0 16 16" fill="none" xmlns="http://www.w3.org/2000/svg">
<path fill-rule="evenodd" clip-rule="evenodd" d="M7.14245 5.25318C7.53102 4.72953 7.67036 4.17764 7.23089 3.69049C6.24468 2.3105 5.58142 1.45713 5.16539 1.04616C4.37448 0.264859 3.0734 0.370542 2.3884 1.04549C2.02049 1.40801 1.89593 1.5325 1.51816 1.91621C-0.586077 4.02158 0.697196 8.47226 4.1086 11.887C7.51924 15.301 11.9695 16.585 14.0781 14.4751C14.4267 14.1391 14.7219 13.8438 14.9547 13.5977C15.6259 12.8882 15.7279 11.6445 14.9502 10.8366C14.5516 10.4223 13.7378 9.7911 12.2998 8.76246C11.8593 8.36863 11.3371 8.45398 10.8583 8.76809C10.628 8.91918 10.4604 9.07202 10.144 9.3888L9.56929 9.9638C9.4936 10.0395 8.4658 9.52481 7.4681 8.52613C6.46985 7.5269 5.95548 6.49905 6.03082 6.42372L6.6059 5.84832C6.70631 5.74782 6.75431 5.69916 6.81587 5.63446C6.94413 5.49966 7.05032 5.37733 7.14245 5.25318ZM10.6294 11.0245L11.2042 10.4493C11.3783 10.275 11.4912 10.1678 11.583 10.0939C12.8428 10.9986 13.5724 11.5674 13.8704 11.877C14.0493 12.0629 14.0215 12.4021 13.8659 12.5665C13.6507 12.794 13.371 13.0738 13.0279 13.4049C11.6643 14.769 8.07199 13.7325 5.16891 10.8266C2.26492 7.91974 1.22897 4.32685 2.58221 2.97287C2.95846 2.59074 3.07766 2.47159 3.44033 2.11425C3.57631 1.98026 3.9467 1.95017 4.11212 2.11358C4.43242 2.42998 5.02657 3.19075 5.90059 4.40825C5.85534 4.46443 5.79883 4.52791 5.73006 4.60019C5.67958 4.65324 5.63753 4.69587 5.54559 4.78789L4.97108 5.36272C3.99372 6.34 4.82608 8.00329 6.40779 9.58656C7.98842 11.1687 9.65233 12.002 10.6294 11.0245Z" fill="black"/>
</svg>
