<svg width="90" height="90" viewBox="0 0 90 90" fill="none" xmlns="http://www.w3.org/2000/svg">
<g clip-path="url(#clip0)">
<path d="M87.6559 64.4172C85.977 61.9499 83.1291 61.3475 80.0354 62.8033L78.3957 63.5253C80.9811 58.0145 81.3019 51.8715 80.0148 46.069C78.5367 39.4046 74.9664 32.9485 69.4033 26.88C68.9114 26.3433 68.0777 26.3071 67.5409 26.7991C67.0042 27.291 66.968 28.1247 67.46 28.6615C72.7064 34.3843 76.0645 40.4331 77.4412 46.6397C78.8912 53.1776 78.0477 59.9198 74.3473 65.3077L57.9395 72.5321L57.953 70.679C57.9534 70.6323 57.9513 70.5855 57.9465 70.539C57.5677 66.7303 54.6564 63.6958 50.8668 63.1597C50.8555 63.1579 50.8443 63.1565 50.8329 63.1553L36.2499 61.4762C30.6423 60.678 29.198 57.3176 21.6036 55.4014C21.0789 50.9488 21.7783 46.2082 23.6954 41.4556C26.5826 34.2981 32.231 27.3442 40.0613 21.2916C42.9798 23.3608 56.0005 23.6184 58.9142 20.949C60.407 22.0826 61.8317 23.2508 63.1588 24.4333C63.41 24.6572 63.7232 24.7673 64.0353 24.7673C64.3981 24.7673 64.7595 24.6184 65.0198 24.3261C65.5041 23.7825 65.4559 22.9493 64.9124 22.4651C63.4576 21.169 61.8928 19.8902 60.2516 18.6543C60.6362 17.0234 60.0979 15.1146 58.6776 13.9784C62.8048 7.71843 64.0052 3.62115 62.347 1.4745C61.2082 -0.000124171 59.7914 0.691927 59.1863 0.987591C58.1608 1.48822 57.6017 1.51458 56.6581 0.897239C54.8579 -0.280671 52.9658 -0.31864 51.1076 0.897239C50.1521 1.52249 49.3995 1.52249 48.4443 0.897239C46.644 -0.280671 44.7526 -0.31864 42.894 0.897239C41.9396 1.52197 41.3783 1.48329 40.3689 0.981614C39.7646 0.681204 38.3494 -0.0222727 37.2033 1.45253C35.5824 3.5387 36.6668 7.50679 40.5155 13.5538C40.2798 13.6813 40.0552 13.8309 39.8455 14.0017C38.3148 12.3852 35.8069 10.6993 32.1802 11.1043C29.172 11.4409 26.9538 10.4469 25.6225 9.55394C25.0178 9.14894 24.199 9.3103 23.7937 9.91464C23.3883 10.5193 23.5498 11.3381 24.1544 11.7435C25.8515 12.8813 28.6721 14.148 32.4727 13.7242C35.2746 13.4099 37.1759 14.8418 38.3594 16.299C38.3432 16.3553 38.3283 16.4119 38.3144 16.4685C37.3049 16.4843 35.7962 16.5785 34.1347 16.9241C30.1388 17.7554 27.1727 19.6543 25.5567 22.4162C25.1892 23.0444 25.4005 23.852 26.0287 24.2197C26.6571 24.5873 27.4645 24.3758 27.8321 23.7476C30.2357 19.6397 36.1027 19.1374 38.4331 19.1059C38.4431 19.1349 38.4549 19.1635 38.4654 19.1924C30.1496 25.6072 24.36 32.7609 21.2508 40.4689C19.2856 45.3411 18.5005 50.2222 18.899 54.8608C17.635 54.6738 16.3563 54.5734 15.0716 54.5647V53.7675C15.0716 51.6583 13.3556 49.9425 11.2464 49.9425H5.19529C3.08609 49.9425 1.37012 51.6585 1.37012 53.7675V84.4666C1.37012 86.576 3.08609 88.2918 5.19529 88.2918H11.2462C13.3554 88.2918 15.0714 86.5758 15.0714 84.4666V84.0912L28.271 89.0041C30.0448 89.6641 31.9038 89.999 33.7965 89.999H53.4639C56.4709 89.999 59.4027 89.1482 61.9424 87.5389C88.1793 70.9065 86.5861 71.9413 86.7376 71.807C88.851 69.9311 89.2458 66.754 87.6559 64.4172ZM56.4406 19.387C51.6204 20.6041 46.9337 20.6041 42.1123 19.387C40.0436 18.864 40.643 15.1744 42.8663 15.7319C47.1796 16.8148 51.373 16.8148 55.6867 15.7319C57.8713 15.1835 58.5426 18.8558 56.4406 19.387ZM39.165 3.32741C39.1754 3.33251 39.1858 3.33779 39.1956 3.34271C40.9796 4.22935 42.5428 4.27751 44.3374 3.10347C46.5832 1.63341 46.827 3.99046 49.7757 3.99046C51.1953 3.99046 51.9788 3.47788 52.5508 3.10347C53.5065 2.47804 54.2592 2.47839 55.2147 3.10347C57.0172 4.28296 58.5426 4.22478 60.3785 3.33937C60.6497 4.31706 60.0359 7.23169 56.1272 13.0511C54.1862 13.0181 51.3695 14.9244 43.3957 13.1499C39.4955 7.25525 38.8924 4.31232 39.165 3.32741ZM85.0589 69.771L60.5314 85.313C58.4145 86.6544 55.9706 87.3637 53.4641 87.3637H33.7967C32.219 87.3637 30.6693 87.0845 29.1907 86.5342L15.0714 81.2788V67.0836C15.0714 66.3555 14.4813 65.7654 13.7534 65.7654C13.0255 65.7654 12.4354 66.3555 12.4354 67.0836V84.4673C12.4354 85.123 11.9019 85.6563 11.2464 85.6563H5.19529C4.53963 85.6563 4.00631 85.1228 4.00631 84.4673V53.7682C4.00631 53.1125 4.53963 52.5794 5.19529 52.5794H11.2462C11.9019 52.5794 12.4352 53.1127 12.4352 53.7682V60.9214C12.4352 61.6495 13.0253 62.2396 13.7532 62.2396C14.4811 62.2396 15.0712 61.6495 15.0712 60.9214V57.2016C25.9751 57.285 28.4267 63.0322 35.8971 64.0888C35.9083 64.0906 35.9196 64.092 35.9308 64.0932L50.5131 65.7721C53.0665 66.1407 55.0316 68.174 55.316 70.7339L55.2977 73.2412H41.6984C40.9705 73.2412 40.3802 73.8313 40.3802 74.5594C40.3802 75.2875 40.9703 75.8776 41.6984 75.8776H56.6062C56.7727 75.8776 56.965 75.8407 57.1323 75.7677C57.1592 75.7558 81.0848 65.2217 81.1128 65.2094C82.8373 64.443 84.4097 64.3335 85.476 65.9004C86.305 67.1181 86.1215 68.7643 85.0589 69.771Z" fill="#C09728"/>
<path d="M49.6246 59.8045C50.3525 59.8045 50.9428 59.2144 50.9428 58.4864V56.3014C54.6431 55.7009 56.8022 52.7058 57.2719 49.9116C57.8587 46.4211 56.0304 43.3855 52.6143 42.1781C52.0106 41.9647 51.4552 41.7606 50.9426 41.5635V33.1591C52.5019 33.4177 53.4381 34.2247 53.5063 34.285C54.0418 34.7719 54.8704 34.7358 55.3617 34.2032C55.8553 33.6681 55.8216 32.8342 55.2865 32.3406C55.1935 32.2549 53.5791 30.8013 50.9426 30.4974V28.6229C50.9426 27.8948 50.3525 27.3047 49.6244 27.3047C48.8965 27.3047 48.3064 27.8948 48.3064 28.6229V30.6039C47.9886 30.6647 47.663 30.7421 47.3285 30.8428C45.0926 31.5162 43.4213 33.4335 42.9665 35.8461C42.5539 38.0354 43.2481 40.1409 44.7779 41.3408C45.6563 42.0297 46.762 42.6604 48.3064 43.3347V53.7587C46.782 53.6942 45.8437 53.408 44.2068 52.3372C43.5977 51.9389 42.7807 52.1092 42.3822 52.7186C41.9837 53.3277 42.1544 54.1447 42.7637 54.5432C44.9154 55.9509 46.3538 56.3181 48.3064 56.394V58.4864C48.3064 59.2144 48.8965 59.8045 49.6246 59.8045ZM46.405 39.2666C45.6524 38.6763 45.3274 37.5527 45.5572 36.3344C45.7702 35.2045 46.547 33.8316 48.0889 33.3672C48.1622 33.3451 48.2343 33.3261 48.3064 33.3067V40.4268C47.5171 40.0327 46.8982 39.6535 46.405 39.2666ZM51.7357 44.6636C55.0158 45.8229 54.8126 48.6393 54.6721 49.4747C54.3814 51.2046 53.1115 53.0514 50.9426 53.6072V44.378C51.1992 44.4718 51.4613 44.5666 51.7357 44.6636Z" fill="#C09728"/>
</g>
<defs>
<clipPath id="clip0">
<rect width="90" height="90" fill="white"/>
</clipPath>
</defs>
</svg>
