<svg width="350" height="351" viewBox="0 0 350 351" fill="none" xmlns="http://www.w3.org/2000/svg">
<g clip-path="url(#clip0)">
<path d="M0 0.5V292.167H196.841C197.815 295.667 198.316 299.279 198.333 302.91V303.833H186.667V350.5H315V303.833H303.251L303.288 299.168C303.313 296.752 303.837 294.368 304.826 292.167H350V0.5H0ZM303.333 338.833H198.333V315.5H303.333V338.833ZM210 303.833V302.91C209.994 294.374 207.912 285.966 203.933 278.412L197.843 266.868L177.788 212.035C177.672 211.719 177.529 211.414 177.361 211.124C176.193 209.084 176.364 206.544 177.794 204.678C179.224 202.812 181.634 201.986 183.907 202.585C185.402 202.978 186.675 203.955 187.441 205.296L199.897 226.881C202.537 231.452 207.921 233.682 213.019 232.315C218.121 230.948 221.667 226.328 221.667 221.047V140.5C221.667 137.279 224.279 134.667 227.5 134.667C230.721 134.667 233.333 137.279 233.333 140.5V193C233.322 196.042 235.652 198.58 238.682 198.833L287.286 202.881C296.329 203.681 303.279 211.229 303.333 220.307V267.603C303.345 271.055 302.328 274.433 300.417 277.31L296.537 283.143C293.381 287.874 291.678 293.426 291.644 299.114L291.584 303.833H210ZM338.333 280.5H311.955C313.949 276.492 314.991 272.078 315 267.603V220.307C314.912 205.174 303.328 192.59 288.254 191.251L245 187.634V140.5C245 130.836 237.164 123 227.5 123C217.836 123 210 130.836 210 140.5V221.047L197.553 199.463C192.691 191.371 182.289 188.591 174.04 193.182C165.791 197.774 162.67 208.076 166.985 216.473L187.023 271.232C187.114 271.477 187.219 271.716 187.345 271.949L191.848 280.5H11.6667V58.8333H338.333V280.5ZM11.6667 47.1667V12.1667H338.333V47.1667H11.6667Z" fill="#C09728"/>
<path d="M23.333 23.8335H34.9997V35.5002H23.333V23.8335Z" fill="#C09728"/>
<path d="M46.667 23.8335H58.3337V35.5002H46.667V23.8335Z" fill="#C09728"/>
<path d="M70 23.8335H81.6667V35.5002H70V23.8335Z" fill="#C09728"/>
<path d="M105 106.223L120.691 92.8078L113.109 83.941L105 90.8652V82.1665H35V152.167H105V106.223ZM46.6667 140.5V93.8332H93.3333V100.834L70.0456 120.778L56.5361 107.425L48.37 115.725L69.5101 136.615L93.3333 116.215V140.5H46.6667Z" fill="#3E8A23"/>
<path d="M105 199.557L120.691 186.141L113.109 177.274L105 184.199V175.5H35V245.5H105V199.557ZM46.6667 233.833V187.167H93.3333V194.168L70.0456 214.112L56.5361 200.759L48.37 209.059L69.5101 229.948L93.3333 209.549V233.833H46.6667Z" fill="#3E8A23"/>
<path d="M175 82.1665H198.333V93.8332H175V82.1665Z" fill="#3E8A23"/>
<path d="M210 82.1665H315V93.8332H210V82.1665Z" fill="#3E8A23"/>
<path d="M175 105.5H315V117.167H175V105.5Z" fill="#3E8A23"/>
<path d="M175 134.667H198.333V146.333H175V134.667Z" fill="#3E8A23"/>
<path d="M256.667 134.667H315V146.333H256.667V134.667Z" fill="#3E8A23"/>
<path d="M256.667 158H315V169.667H256.667V158Z" fill="#3E8A23"/>
<path d="M175 158H198.333V169.667H175V158Z" fill="#3E8A23"/>
</g>
<defs>
<clipPath id="clip0">
<rect width="350" height="350" fill="white" transform="translate(0 0.5)"/>
</clipPath>
</defs>
</svg>
