<svg width="350" height="350" viewBox="0 0 350 350" fill="none" xmlns="http://www.w3.org/2000/svg">
<path d="M182.52 350C275.016 350 350 275.016 350 182.52C350 90.0226 275.016 15.0391 182.52 15.0391C90.0226 15.0391 15.0391 90.0226 15.0391 182.52C15.0391 275.016 90.0226 350 182.52 350Z" fill="#C09728"/>
<path d="M165.197 165.197C178.137 152.258 195.34 145.132 213.638 145.132C226.104 145.132 238.059 148.442 248.508 154.641V36.7544H0V253.392C0 257.152 3.07617 260.228 6.83594 260.228H163.423C138.506 233.399 139.094 191.301 165.197 165.197Z" fill="#3E8A23"/>
<path d="M15.5039 253.392V36.7544H0V253.392C0 257.152 3.07617 260.228 6.83594 260.228H22.3398C18.5801 260.228 15.5039 257.152 15.5039 253.392Z" fill="#C09728"/>
<path d="M244.6 0H3.90742C1.7582 0 0 1.7582 0 3.90742V38.69H248.508V3.90742C248.508 1.7582 246.749 0 244.6 0Z" fill="#C4C4C4"/>
<path d="M19.4113 0H3.90742C1.7582 0 0 1.7582 0 3.90742V38.69H15.5039V3.90742C15.5039 1.7582 17.2621 0 19.4113 0Z" fill="#C4C4C4"/>
<path d="M108.182 122.099C108.182 123.979 106.644 125.517 104.764 125.517H28.582C26.7021 125.517 25.1641 123.979 25.1641 122.099V67.4668C25.1641 65.5869 26.7021 64.0488 28.582 64.0488H104.763C106.643 64.0488 108.181 65.5869 108.181 67.4668V122.099H108.182Z" fill="white"/>
<path d="M40.668 122.099V67.4668C40.668 65.5869 42.2061 64.0488 44.0859 64.0488H28.582C26.7021 64.0488 25.1641 65.5869 25.1641 67.4668V122.099C25.1641 123.979 26.7021 125.517 28.582 125.517H44.0859C42.2061 125.517 40.668 123.979 40.668 122.099Z" fill="#C4C4C4"/>
<path d="M148.439 192.629H28.582C26.7021 192.629 25.1641 194.167 25.1641 196.047V228.729C25.1641 230.609 26.7021 232.147 28.582 232.147H147.696C144.09 219.221 144.335 205.437 148.439 192.629Z" fill="white"/>
<path d="M40.668 228.729V196.047C40.668 194.167 42.2061 192.629 44.0859 192.629H28.582C26.7021 192.629 25.1641 194.167 25.1641 196.047V228.729C25.1641 230.609 26.7021 232.147 28.582 232.147H44.0859C42.2061 232.147 40.668 230.609 40.668 228.729Z" fill="white"/>
<path d="M148.445 192.629H123.631V232.147H147.702C144.096 219.221 144.341 205.437 148.445 192.629Z" fill="white"/>
<path d="M219.259 69.1758H135.458C132.627 69.1758 130.331 66.8803 130.331 64.0488C130.331 61.2174 132.627 58.9219 135.458 58.9219H219.259C222.091 58.9219 224.386 61.2174 224.386 64.0488C224.386 66.8803 222.091 69.1758 219.259 69.1758Z" fill="#C4C4C4"/>
<path d="M219.259 89.6651H135.458C132.627 89.6651 130.331 87.3696 130.331 84.5381C130.331 81.7066 132.627 79.4111 135.458 79.4111H219.259C222.091 79.4111 224.386 81.7066 224.386 84.5381C224.386 87.3696 222.091 89.6651 219.259 89.6651Z" fill="#C4C4C4"/>
<path d="M219.259 110.153H135.458C132.627 110.153 130.331 107.858 130.331 105.026C130.331 102.195 132.627 99.8994 135.458 99.8994H219.259C222.091 99.8994 224.386 102.195 224.386 105.026C224.386 107.858 222.091 110.153 219.259 110.153Z" fill="#C4C4C4"/>
<path d="M219.259 130.643H135.458C132.627 130.643 130.331 128.347 130.331 125.516C130.331 122.684 132.627 120.389 135.458 120.389H219.259C222.091 120.389 224.386 122.684 224.386 125.516C224.386 128.347 222.091 130.643 219.259 130.643Z" fill="#C4C4C4"/>
<path d="M204.705 145.704H25.1641C22.3319 145.704 20.0371 148 20.0371 150.831C20.0371 153.662 22.3319 155.958 25.1641 155.958H176.631C185.098 150.502 194.645 147.006 204.705 145.704Z" fill="#C4C4C4"/>
<path d="M163.862 166.565H25.1641C22.3319 166.565 20.0371 168.86 20.0371 171.692C20.0371 174.523 22.3319 176.819 25.1641 176.819H155.859C158.157 173.213 160.823 169.776 163.862 166.565Z" fill="#C4C4C4"/>
<path d="M23.8564 23.6597C22.5036 23.6597 21.1836 23.1128 20.2266 22.1619C19.2757 21.2049 18.7295 19.8855 18.7295 18.5327C18.7295 17.1854 19.2764 15.8667 20.2266 14.9097C21.1829 13.9526 22.5029 13.4058 23.8564 13.4058C25.2038 13.4058 26.5293 13.952 27.4795 14.9097C28.4365 15.8667 28.9834 17.186 28.9834 18.5327C28.9834 19.8855 28.4365 21.2056 27.4795 22.1619C26.5293 23.1128 25.2031 23.6597 23.8564 23.6597Z" fill="#C4C4C4"/>
<path d="M40.666 23.6597C39.3186 23.6597 37.9932 23.1128 37.0423 22.1551C36.0859 21.2049 35.5391 19.8855 35.5391 18.5327C35.5391 17.1854 36.0859 15.8667 37.0423 14.9097C37.9993 13.9526 39.3186 13.4058 40.666 13.4058C42.0188 13.4058 43.3382 13.952 44.2959 14.9097C45.2461 15.8667 45.793 17.186 45.793 18.5327C45.793 19.8794 45.2454 21.2056 44.2959 22.1551C43.3382 23.1128 42.0195 23.6597 40.666 23.6597Z" fill="white"/>
<path d="M57.4834 23.6597C56.1299 23.6597 54.8105 23.1128 53.8603 22.1619C52.9033 21.2049 52.3564 19.8855 52.3564 18.5327C52.3564 17.1854 52.9033 15.8667 53.8603 14.9097C54.8105 13.9526 56.1299 13.4058 57.4834 13.4058C58.8301 13.4058 60.1562 13.952 61.1064 14.9097C62.0635 15.8667 62.6104 17.186 62.6104 18.5327C62.6104 19.8855 62.0635 21.2056 61.1064 22.1619C60.1494 23.1128 58.8294 23.6597 57.4834 23.6597Z" fill="#37C47A"/>
<path d="M280.114 266.059L266.062 280.111L293.705 307.753C298.661 303.35 303.353 298.657 307.757 293.701L280.114 266.059Z" fill="#C4C4C4"/>
<path d="M285.697 257.586L274.052 245.941C270.955 251.742 266.967 257.19 262.081 262.075C257.251 266.905 251.826 270.924 245.972 274.066L257.595 285.688C258.924 287.018 261.099 287.018 262.429 285.688L285.697 262.419C287.026 261.091 287.026 258.915 285.697 257.586Z" fill="#C4C4C4"/>
<path d="M265.564 277.714L255.624 267.775C252.568 270.154 249.338 272.257 245.965 274.067L257.588 285.689C258.917 287.019 261.092 287.019 262.422 285.689L270.397 277.714C269.068 279.044 266.893 279.044 265.564 277.714Z" fill="#C4C4C4"/>
<path d="M263.045 164.228C290.331 191.514 290.331 235.755 263.044 263.042C235.759 290.327 191.519 290.327 164.231 263.042C136.945 235.755 136.946 191.514 164.231 164.229C191.519 136.942 235.759 136.941 263.045 164.228Z" fill="#C4C4C4"/>
<path d="M248.28 248.275C229.149 267.407 198.129 267.407 178.996 248.274C159.865 229.144 159.864 198.124 178.996 178.992C198.127 159.861 229.148 159.862 248.279 178.992C267.411 198.124 267.411 229.143 248.28 248.275Z" fill="white"/>
<path d="M248.28 248.273C250.022 246.531 251.601 244.688 253.026 242.766C233.848 256.988 206.641 255.409 189.25 238.018C171.861 220.63 170.282 193.422 184.503 174.244C182.581 175.669 180.738 177.249 178.996 178.99C159.864 198.122 159.865 229.142 178.996 248.272C198.129 267.405 229.149 267.405 248.28 248.273Z" fill="#C4C4C4"/>
<path d="M244.6 0H79.2363V38.69H248.507V3.90742C248.507 1.7582 246.749 0 244.6 0Z" fill="#C4C4C4"/>
<path d="M222.054 189.033C226.584 189.033 230.257 185.36 230.257 180.83C230.257 176.299 226.584 172.626 222.054 172.626C217.523 172.626 213.851 176.299 213.851 180.83C213.851 185.36 217.523 189.033 222.054 189.033Z" fill="#D9EAFC"/>
<path d="M239.287 195.166C242.496 195.166 245.098 192.565 245.098 189.355C245.098 186.146 242.496 183.545 239.287 183.545C236.078 183.545 233.477 186.146 233.477 189.355C233.477 192.565 236.078 195.166 239.287 195.166Z" fill="#D9EAFC"/>
</svg>
