<svg width="57" height="57" viewBox="0 0 57 57" fill="none" xmlns="http://www.w3.org/2000/svg">
<path fill-rule="evenodd" clip-rule="evenodd" d="M14.4934 0.437744C16.1502 0.437744 17.4934 1.78089 17.4934 3.43774V6.04027H39.5069V3.43774C39.5069 1.78089 40.8501 0.437744 42.5069 0.437744C44.1638 0.437744 45.5069 1.78089 45.5069 3.43774V6.04027H53.7121C55.369 6.04027 56.7121 7.38341 56.7121 9.04027V20.2459V53.8616C56.7121 55.5185 55.369 56.8616 53.7121 56.8616H3.28809C1.63123 56.8616 0.288086 55.5185 0.288086 53.8616V20.2459V9.04027C0.288086 7.38341 1.63123 6.04027 3.28809 6.04027H11.4934V3.43774C11.4934 1.78089 12.8365 0.437744 14.4934 0.437744ZM42.4766 12.0403C42.4867 12.0404 42.4968 12.0404 42.5069 12.0404C42.517 12.0404 42.5271 12.0404 42.5372 12.0403H50.7121V17.2459H6.28809V12.0403H14.4631L14.4934 12.0404L14.5237 12.0403H42.4766ZM6.28809 23.2459H50.7121V50.8616H6.28809V23.2459Z" fill="#D2492F"/>
</svg>
