<svg width="450" height="450" viewBox="0 0 450 450" fill="none" xmlns="http://www.w3.org/2000/svg">
<path d="M108 351H102V345C102 341.687 99.3165 339 96 339C92.6835 339 90 341.687 90 345V351H84C80.6835 351 78 353.687 78 357C78 360.314 80.6835 363 84 363H90V369C90 372.314 92.6835 375 96 375C99.3165 375 102 372.314 102 369V363H108C111.316 363 114 360.314 114 357C114 353.687 111.316 351 108 351Z" fill="#C09728"/>
<path d="M366 345C362.684 345 360 347.686 360 351V387C360 390.313 362.684 393 366 393C369.316 393 372 390.313 372 387V351C372 347.686 369.316 345 366 345Z" fill="#3E8A23"/>
<path d="M264 345C260.684 345 258 347.686 258 351V387C258 390.313 260.684 393 264 393C267.316 393 270 390.313 270 387V351C270 347.686 267.316 345 264 345Z" fill="#3E8A23"/>
<path d="M372.919 291.04C387.976 267.774 396 240.963 396 213C396 172.916 379.09 134.33 349.611 107.136C347.179 104.886 343.383 105.042 341.133 107.477C338.889 109.914 339.04 113.708 341.478 115.955C368.502 140.886 384 176.256 384 213C384 239.615 376.093 265.095 361.242 286.973C356.173 285.729 350.884 285 345.405 285H330V275.369C351.057 267.867 366 249.483 366 228V171C366 159.836 358.336 150.428 347.994 147.759C347.748 134.065 336.528 123 322.776 123H268.998C266.499 106.748 259.158 92.3055 248.469 81.1065C259.875 80.8125 271.315 82.0335 282.367 84.6315C284.133 96.135 294.007 105 306 105C319.236 105 330 94.233 330 81C330 67.767 319.236 57 306 57C295.759 57 287.064 63.474 283.623 72.5205C267.813 68.988 251.289 68.1345 235.18 70.0125C222.79 61.797 207.957 57 192 57H120C76.992 57 42 91.989 42 135C42 173.927 70.6935 206.187 108.019 211.982C108.016 212.322 108 212.658 108 213C108 221.822 108.808 230.672 110.397 239.306C110.929 242.198 113.449 244.218 116.292 244.218C116.649 244.218 117.018 244.187 117.382 244.119C120.646 243.519 122.796 240.39 122.199 237.132C120.738 229.214 120 221.094 120 213H192C193.143 213 194.28 212.957 195.405 212.889L217.758 235.242C218.907 236.391 220.441 237 222 237C222.774 237 223.552 236.85 224.296 236.543C226.534 235.614 228 233.426 228 231V204.129C237.225 199.317 245.344 192.591 252 184.574V228C252 249.483 266.943 267.867 288 275.369V285H270.058C246.867 285 228 302.714 228 324.483V342.665C196.839 336.959 169.212 320.481 149.239 295.629C153.406 291.309 156 285.461 156 279C156 265.767 145.236 255 132 255C118.764 255 108 265.767 108 279C108 292.233 118.764 303 132 303C134.367 303 136.609 302.549 138.772 301.908C161.103 330.345 192.544 349.034 228 354.968V387C228 390.314 230.683 393 234 393C237.316 393 240 390.314 240 387V324.483C240 309.327 253.482 297 270.058 297H276.151C277.674 313.794 291.819 327 309 327C326.181 327 340.324 313.794 341.848 297H345.405C373.302 297 396 317.886 396 343.556V387C396 390.314 398.683 393 402 393C405.316 393 408 390.314 408 387V343.556C408 320.51 393.66 300.59 372.919 291.04ZM306 69C312.615 69 318 74.382 318 81C318 87.618 312.615 93 306 93C299.385 93 294 87.618 294 81C294 74.382 299.385 69 306 69ZM120 279C120 272.382 125.385 267 132 267C138.615 267 144 272.382 144 279C144 285.618 138.615 291 132 291C125.385 291 120 285.618 120 279ZM336 148.224V153C336 156.314 338.684 159 342 159C348.615 159 354 164.382 354 171V199.407C350.403 197.333 348 193.445 348 189V177C348 173.687 345.316 171 342 171H246V148.224C246 140.933 251.929 135 259.224 135H322.774C330.07 135 336 140.933 336 148.224ZM219.492 194.939C217.365 195.917 216 198.047 216 200.391V216.513L201.955 202.469C200.713 201.224 198.973 200.588 197.238 200.729C195.504 200.865 193.77 201 192 201H120C83.607 201 54 171.393 54 135C54 98.607 83.607 69 120 69H192C206.086 69 219.139 73.416 229.885 80.928C229.939 80.97 229.995 81.0015 230.05 81.0405C243.87 90.765 253.782 105.674 256.915 123.233C244.101 124.421 234 135.105 234 148.224V177C234 179.453 235.479 181.547 237.588 182.477C232.267 187.569 226.197 191.858 219.492 194.939ZM264 228V183H336V189C336 200.174 343.588 209.588 354 212.247V228C354 249.504 333.814 267 309 267C284.185 267 264 249.504 264 228ZM309 315C298.449 315 289.774 307.151 288.303 297H294C297.316 297 300 294.314 300 291V278.301C302.938 278.721 305.931 279 309 279C312.069 279 315.061 278.721 318 278.301V291C318 294.314 320.683 297 324 297H329.697C328.225 307.151 319.551 315 309 315Z" fill="#3E8A23"/>
<path d="M316.775 246.63C318.158 244.817 318.386 242.376 317.372 240.335C316.358 238.293 314.279 237 311.999 237H287.999C285.719 237 283.64 238.292 282.626 240.335C281.612 242.378 281.842 244.817 283.223 246.63C287.266 251.951 293.378 255 299.999 255C306.62 255 312.731 251.951 316.775 246.63Z" fill="#3E8A23"/>
<path d="M276 213C279.314 213 282 210.314 282 207C282 203.686 279.314 201 276 201C272.686 201 270 203.686 270 207C270 210.314 272.686 213 276 213Z" fill="#3E8A23"/>
<path d="M324 213C327.314 213 330 210.314 330 207C330 203.686 327.314 201 324 201C320.686 201 318 203.686 318 207C318 210.314 320.686 213 324 213Z" fill="#3E8A23"/>
<path d="M222 117H210C207.323 117 204.967 118.776 204.228 121.35L196.47 148.52L191.367 138.315C190.347 136.283 188.274 135 186 135H173.297L167.954 92.2561C167.613 89.5396 165.482 87.3991 162.768 87.0496C160.097 86.7061 157.448 88.2271 156.428 90.7696L138 136.845L131.573 120.77C130.594 118.329 128.216 116.786 125.514 117.02C122.895 117.231 120.716 119.129 120.141 121.698L114.845 145.551L107.919 104.012C107.468 101.294 105.218 99.2326 102.47 99.0166C99.7515 98.8381 97.185 100.485 96.312 103.101L85.6755 135H72C68.6835 135 66 137.687 66 141C66 144.314 68.6835 147 72 147H90C92.5845 147 94.875 145.347 95.6895 142.899L100.055 129.815L108.083 177.987C108.557 180.821 110.971 182.921 113.842 182.997C113.895 183 113.948 183 114 183C116.807 183 119.244 181.052 119.859 178.301L127.641 143.265L132.428 155.231C133.343 157.506 135.545 159 138 159C140.456 159 142.658 157.506 143.573 155.229L158.93 116.826L162.047 141.743C162.422 144.747 164.976 147 168 147H182.291L192.633 167.684C193.74 169.893 196.014 171.188 198.557 170.973C201.018 170.745 203.091 169.028 203.772 166.649L214.524 128.999H222C225.317 128.999 228 126.312 228 122.999C228 119.685 225.317 117 222 117Z" fill="#C09728"/>
<path d="M204.795 282C204.795 278.247 201.753 275.205 198 275.205C194.247 275.205 191.205 278.247 191.205 282C191.205 285.752 194.247 288.795 198 288.795C201.752 288.795 204.795 285.752 204.795 282Z" fill="#C09728"/>
</svg>
